# xmcd
#
# Track frame offsets:
# 150
# 22657
# 55255
# 89805
# 118941
# 174889
#
# Disc length: 2812 seconds
#
#
# Revision: 0
# Processed by: cddbd v1.5.2PL0 Copyright (c) Steve Scherf et al.
# Submitted via: FreeRIP 2.945 
#
DISCID=450afa06
DTITLE=Deep Factory - Royal Drama CDM
DYEAR=2007
DGENRE=House
TTITLE0=Royal Drama (Original Edit)
TTITLE1=Royal Drama (Deep Factory Aura Tribe Mix)
TTITLE2=Royal Drama (Enrry Maxi Tribe Mix)
TTITLE3=Royal Drama (E-Thunder Dramatic Dark Mix)
TTITLE4=Royal Drama (J. Verner Tribal Hot 12" Mix)
TTITLE5=Royal Drama (Siren Stern Club Mix)
EXTD=
EXTT0=
EXTT1=
EXTT2=
EXTT3=
EXTT4=
EXTT5=
PLAYORDER=
